<?xml version="1.0" standalone="no"?>
<!DOCTYPE svg PUBLIC "-//W3C//DTD SVG 20010904//EN"
 "http://www.w3.org/TR/2001/REC-SVG-20010904/DTD/svg10.dtd">
<svg version="1.0" xmlns="http://www.w3.org/2000/svg"
 width="600.000000pt" height="600.000000pt" viewBox="0 0 600.000000 600.000000"
 preserveAspectRatio="xMidYMid meet">

<g transform="translate(0.000000,600.000000) scale(0.100000,-0.100000)"
fill="#000000" stroke="none">
<path d="M2475 5298 c-57 -31 -129 -128 -258 -346 -691 -1167 -800 -2541 -272
-3437 182 -310 436 -551 745 -709 204 -104 288 -123 401 -90 116 34 389 188
509 288 441 365 701 914 760 1601 60 713 -148 1565 -561 2285 -207 362 -312
475 -365 395 -25 -38 -13 -154 30 -309 41 -147 78 -328 103 -507 25 -179 25
-629 0 -789 -64 -410 -203 -681 -403 -787 -318 -169 -629 124 -733 692 -73
395 -46 898 70 1335 54 200 59 224 59 285 0 90 -31 123 -85 93z m1403 -3525
c19 -25 8 -127 -24 -220 -98 -293 -322 -536 -508 -550 -56 -5 -65 -3 -94 22
-49 41 -59 90 -38 179 52 222 229 436 453 550 96 48 183 56 211 19z m-1571
-23 c221 -102 401 -308 463 -532 24 -88 25 -106 4 -157 -10 -27 -26 -45 -49
-55 -202 -96 -559 287 -617 661 l-12 76 29 24 c24 21 34 24 74 18 25 -3 74
-19 108 -35z"/>
</g>
</svg>
